<?xml version="1.0" encoding="UTF-8"?>
<svg id="Layer_1" xmlns="http://www.w3.org/2000/svg" xmlns:xlink="http://www.w3.org/1999/xlink" version="1.1" viewBox="0 0 288 288">
  <!-- Generator: Adobe Illustrator 29.8.2, SVG Export Plug-In . SVG Version: 2.1.1 Build 3)  -->
  <defs>
    <style>
      .st0 {
        fill: none;
      }

      .st1 {
        fill: #ffa100;
      }

      .st2 {
        fill: #ff9b00;
      }

      .st3 {
        fill: #ffa000;
      }

      .st4 {
        fill: #ffad00;
      }

      .st5 {
        fill: #fa0;
      }

      .st6 {
        fill: #ffab00;
      }

      .st7 {
        fill: #ffa700;
      }

      .st8 {
        fill: #fc7e5b;
      }

      .st9 {
        fill: #ff9200;
      }

      .st10 {
        fill: #ff9a00;
      }

      .st11 {
        fill: #ffa600;
      }

      .st12 {
        fill: #004e6c;
      }

      .st13 {
        fill: #004e6c;
      }

      .st14 {
        fill: #ff9800;
      }

      .st15 {
        fill: orange;
      }

      .st16 {
        fill: #ff9400;
      }

      .st17 {
        fill: #ff9f00;
      }

      .st18 {
        fill: #ff9c00;
      }

      .st19 {
        fill: #ffa400;
      }

      .st20 {
        fill: #ffa300;
      }

      .st21 {
        fill: #ffae00;
      }

      .st22 {
        fill: #ff9700;
      }

      .st23 {
        fill: #ffa800;
      }

      .st24 {
        fill: #009ab2;
      }

      .st25 {
        fill: #ff9e00;
      }

      .st26 {
        fill: #ffa900;
      }

      .st27 {
        fill: #ffac00;
      }

      .st28 {
        fill: #ff9500;
      }

      .st29 {
        clip-path: url(#clippath);
      }

      .st30 {
        fill: #f6f1e6;
      }
    </style>
    <clipPath id="clippath">
      <path class="st0" d="M176.51,137.04c1.35-.07,2.71-.11,4.04-.11,4.15,0,8.27.37,12.23,1.1,3.28.6,6.58,1.41,9.76,2.19,2.1.52,4.28,1.05,6.42,1.51,4.95,1.08,9.59,1.6,14.18,1.6.55,0,1.1,0,1.65-.02.9-.03,1.81-.08,2.73-.14-.96-15.39-13.73-27.58-29.35-27.58-13.72,0-25.24,9.4-28.5,22.11,2.31-.31,4.59-.54,6.83-.66Z"/>
    </clipPath>
  </defs>
  <rect class="st30" width="288" height="288"/>
  <g>
    <path class="st8" d="M57.82,160.76h-3.07l-10.97,20.47-1.8.43-.16.85h5.89l.16-.85-2.17-.43,3.3-6.23h8.5l1.03,6.23-2.3.43-.18.85h7.64l.18-.85-2.01-.43-4.02-20.47ZM49.71,173.55l5.54-10.48,1.98,10.48h-7.51ZM75.08,159.65l-.13.72,2.48.39c-.69,3.89-1.05,6.1-1.09,6.61-.76-.25-1.65-.37-2.66-.37-1.64,0-3.15.47-4.52,1.41-1.37.94-2.45,2.22-3.24,3.83-.79,1.61-1.18,3.34-1.18,5.17,0,1.64.39,2.96,1.16,3.95.77.99,1.82,1.49,3.14,1.49,1.5,0,3.16-.95,4.97-2.85l-.47,2.51h4.59l.13-.72-1.82-.4,3.86-21.74h-5.21ZM74.21,178.6c-.65.71-1.33,1.26-2.04,1.65s-1.35.59-1.95.59c-.8,0-1.44-.34-1.91-1.03-.47-.69-.71-1.6-.71-2.75,0-1.49.27-2.93.8-4.33s1.24-2.49,2.12-3.28,1.82-1.19,2.83-1.19c.57,0,1.05.07,1.45.21.4.14.78.33,1.16.58l-1.75,9.56ZM95.5,167.39l-2.46,14,1.9.4-.13.72h-4.47l.43-3.11c-.89,1.15-1.82,2.02-2.78,2.61-.97.59-1.92.88-2.87.88-1.08,0-1.9-.29-2.45-.88s-.82-1.42-.82-2.52c0-.16.03-.45.09-.86.06-.41.64-3.8,1.73-10.15l-1.79-.39.13-.72h4.52l-1.64,9.35c-.25,1.35-.37,2.24-.37,2.67,0,.48.13.87.39,1.17s.67.45,1.22.45c.8,0,1.67-.34,2.61-1.01.93-.67,1.7-1.49,2.3-2.47l1.79-10.17h2.67ZM105.13,159.65l-3.81,21.74,2.53.4-.13.72h-5.26l3.81-21.76-2.08-.39.13-.72h4.81ZM112.21,167.39h3.46l-.26,1.35h-3.46l-1.56,8.83c-.19.99-.29,1.7-.29,2.14,0,.48.12.85.36,1.09s.55.36.93.36c.78,0,1.6-.16,2.45-.48l.34.76c-1.32.93-2.66,1.4-4.01,1.4-.85,0-1.52-.26-2-.77-.49-.51-.73-1.23-.73-2.16,0-.31.03-.68.09-1.1.06-.42.65-3.78,1.76-10.06h-1.98l.13-.72,2.14-.63,2.2-3.43h1.03l-.6,3.43ZM149.22,162.21l-3.36,19.02,2.7.43-.16.85h-8.75l.16-.85,2.96-.43,3.04-17.27-10.96,18.55h-.56l-3.72-18.55-3.04,17.27,2.83.43-.16.85h-7.34l.16-.85,2.82-.43,3.36-19.02-2.7-.42.16-.85h6.15l3.31,16.46,9.62-16.46h6.47l-.16.85-2.83.42ZM163.39,167.9c-.8-.61-1.86-.91-3.18-.91-1.47,0-2.88.48-4.22,1.44-1.34.96-2.39,2.22-3.15,3.76-.76,1.55-1.13,3.22-1.13,5.01s.47,3.2,1.41,4.18,2.28,1.46,4.01,1.46c.99,0,2.03-.23,3.13-.68,1.1-.45,2.14-1.09,3.13-1.93l-.47-.68c-.71.42-1.47.79-2.28,1.12-.82.33-1.71.49-2.67.49-1.13,0-1.98-.35-2.55-1.04s-.86-1.72-.86-3.08l.06-1.18c3.04-.2,5.45-.82,7.26-1.85,1.8-1.03,2.7-2.27,2.7-3.73,0-.99-.4-1.78-1.2-2.39ZM159.85,173.36c-1.28.84-2.98,1.34-5.1,1.5.2-1.14.56-2.22,1.08-3.25.51-1.03,1.13-1.85,1.83-2.46.71-.61,1.44-.92,2.19-.92.62,0,1.1.19,1.42.58.33.39.49.88.49,1.48,0,1.21-.64,2.24-1.91,3.07ZM176.67,159.65l-.13.72,2.48.39c-.69,3.89-1.05,6.1-1.09,6.61-.76-.25-1.65-.37-2.66-.37-1.64,0-3.15.47-4.52,1.41-1.37.94-2.45,2.22-3.24,3.83-.79,1.61-1.18,3.34-1.18,5.17,0,1.64.39,2.96,1.16,3.95.77.99,1.82,1.49,3.14,1.49,1.5,0,3.16-.95,4.97-2.85l-.47,2.51h4.59l.13-.72-1.82-.4,3.86-21.74h-5.21ZM175.8,178.6c-.65.71-1.33,1.26-2.04,1.65s-1.35.59-1.95.59c-.8,0-1.44-.34-1.91-1.03-.47-.69-.71-1.6-.71-2.75,0-1.49.27-2.93.8-4.33s1.24-2.49,2.12-3.28,1.82-1.19,2.83-1.19c.57,0,1.05.07,1.45.21.4.14.78.33,1.16.58l-1.75,9.56ZM189.45,161.21c.34.34.51.76.51,1.24s-.17.88-.51,1.22c-.34.34-.76.51-1.24.51s-.88-.17-1.22-.51-.51-.75-.51-1.22.17-.9.51-1.24c.34-.34.75-.52,1.22-.52s.89.17,1.24.52ZM186.5,181.39l2.53.4-.13.72h-5.26l2.46-14-2.08-.4.13-.72h4.81l-2.46,14ZM203.11,167.23c.86.16,1.57.36,2.12.6l-.72,4.22h-.89l-.26-2.8c-.68-.68-1.58-1.01-2.7-1.01-1.03,0-1.99.38-2.89,1.14-.9.76-1.61,1.82-2.15,3.19-.54,1.36-.8,2.86-.8,4.49,0,2.75,1.1,4.12,3.31,4.12,1.53,0,3.13-.54,4.8-1.61l.48.68c-.87.8-1.85,1.44-2.93,1.91-1.08.47-2.11.7-3.09.7-1.73,0-3.06-.5-4.01-1.5-.94-1-1.42-2.38-1.42-4.14,0-1.87.37-3.57,1.13-5.11s1.82-2.78,3.21-3.71c1.39-.93,2.85-1.4,4.37-1.4.76,0,1.57.08,2.43.24ZM210.29,181.39l2.53.4-.13.72h-5.26l2.46-14-2.08-.4.13-.72h4.81l-2.46,14ZM213.23,161.21c.34.34.51.76.51,1.24s-.17.88-.51,1.22c-.34.34-.76.51-1.24.51s-.88-.17-1.22-.51-.51-.75-.51-1.22.17-.9.51-1.24c.34-.34.75-.52,1.22-.52s.89.17,1.24.52ZM227.74,181.4l2.11.39-.13.72h-4.84l1.64-9.37c.25-1.36.37-2.25.37-2.67,0-.48-.13-.87-.39-1.17s-.67-.45-1.22-.45c-.79,0-1.66.34-2.6,1.01s-1.71,1.51-2.33,2.51l-1.77,10.14h-2.67l2.46-14.02-1.9-.4.13-.72h4.47l-.43,3.09c.9-1.16,1.83-2.03,2.8-2.61.97-.58,1.91-.87,2.85-.87,1.08,0,1.9.29,2.45.88.55.58.82,1.42.82,2.52,0,.15-.02.38-.06.69-.04.31-.63,3.76-1.75,10.33ZM242.4,174.02c1.8-1.03,2.7-2.27,2.7-3.73,0-.99-.4-1.78-1.2-2.39-.8-.61-1.86-.91-3.18-.91-1.47,0-2.88.48-4.22,1.44-1.34.96-2.39,2.22-3.15,3.76-.76,1.55-1.13,3.22-1.13,5.01s.47,3.2,1.41,4.18,2.28,1.46,4.01,1.46c.99,0,2.03-.23,3.13-.68,1.1-.45,2.14-1.09,3.13-1.93l-.47-.68c-.71.42-1.47.79-2.28,1.12-.82.33-1.71.49-2.67.49-1.13,0-1.98-.35-2.55-1.04s-.86-1.72-.86-3.08l.06-1.18c3.04-.2,5.45-.82,7.26-1.85ZM236.35,171.6c.51-1.03,1.13-1.85,1.83-2.46.71-.61,1.44-.92,2.19-.92.62,0,1.1.19,1.42.58.33.39.49.88.49,1.48,0,1.21-.64,2.24-1.91,3.07-1.28.84-2.98,1.34-5.1,1.5.2-1.14.56-2.22,1.08-3.25Z"/>
    <path class="st13" d="M66.58,143.45v.51l-1.42.25-5.22,12.52h-.49l-5.28-12.52-1.46-.25v-.51h5.25v.51l-1.74.25,3.93,9.56,3.92-9.56-1.7-.25v-.51h4.22ZM67.12,151.85v.17c0,.89.1,1.58.3,2.08.2.49.5.87.91,1.13.41.26.95.39,1.61.39.35,0,.76-.03,1.24-.09.48-.06.87-.12,1.18-.19v.54c-.31.2-.73.37-1.26.52s-1.08.22-1.63.22c-1.41,0-2.45-.38-3.1-1.14-.66-.76-.98-1.98-.98-3.67,0-1.59.33-2.77,1-3.55.67-.78,1.61-1.17,2.85-1.17,2.33,0,3.49,1.32,3.49,3.97v.79h-5.6ZM69.22,147.86c-.67,0-1.19.27-1.54.81-.36.54-.54,1.34-.54,2.4h3.89c0-1.16-.15-1.98-.45-2.47s-.75-.74-1.36-.74ZM79.83,147.09v2.46h-.42l-.56-1.07c-.32,0-.71.04-1.15.13-.44.09-.83.2-1.15.34v6.8l1.56.24v.44h-4.32v-.44l1.15-.24v-7.75l-1.15-.24v-.44h2.65l.09,1.13c.39-.32.91-.63,1.57-.93.66-.3,1.19-.45,1.57-.45h.14ZM89.16,151.83c0,3.2-1.42,4.79-4.26,4.79-1.37,0-2.4-.41-3.1-1.23-.7-.82-1.05-2.01-1.05-3.56s.35-2.71,1.05-3.52c.7-.81,1.75-1.22,3.17-1.22s2.42.4,3.13,1.2c.7.8,1.05,1.98,1.05,3.55ZM87.42,151.83c0-1.39-.2-2.4-.61-3.03s-1.04-.94-1.91-.94-1.46.3-1.83.9c-.38.6-.57,1.62-.57,3.07s.19,2.5.58,3.11c.38.61.99.92,1.82.92s1.48-.32,1.9-.95c.41-.63.62-1.66.62-3.08ZM95.45,156.43v-.51l1.67-.26v-11.44l-1.67-.25v-.51h5.93c1.65,0,2.85.24,3.61.73.76.49,1.14,1.26,1.14,2.32,0,.76-.23,1.41-.7,1.95-.47.54-1.12.89-1.97,1.08,1.17.12,2.07.46,2.71,1.02.64.56.96,1.28.96,2.15,0,1.25-.43,2.19-1.29,2.83-.86.64-2.12.96-3.77.96l-4.14-.06h-2.48ZM104.15,146.59c0-.79-.25-1.37-.75-1.73-.5-.36-1.3-.54-2.42-.54h-2v4.91h2.12c1.05,0,1.82-.21,2.31-.62.49-.41.74-1.08.74-2.01ZM105.13,152.73c0-.91-.3-1.58-.91-2-.61-.42-1.58-.63-2.91-.63h-2.32v5.46c.89.04,1.84.06,2.85.06,1.1,0,1.93-.23,2.48-.7.55-.47.82-1.2.82-2.18ZM110.62,151.85v.17c0,.89.1,1.58.3,2.08.2.49.5.87.91,1.13.41.26.95.39,1.61.39.35,0,.76-.03,1.24-.09.48-.06.87-.12,1.18-.19v.54c-.31.2-.73.37-1.26.52s-1.08.22-1.63.22c-1.41,0-2.45-.38-3.1-1.14-.66-.76-.98-1.98-.98-3.67,0-1.59.33-2.77,1-3.55.67-.78,1.61-1.17,2.85-1.17,2.33,0,3.49,1.32,3.49,3.97v.79h-5.6ZM112.72,147.86c-.67,0-1.19.27-1.54.81-.36.54-.54,1.34-.54,2.4h3.89c0-1.16-.15-1.98-.45-2.47s-.75-.74-1.36-.74ZM121.4,147.12c.99,0,1.72.2,2.19.61.47.41.7,1.03.7,1.87v6.15l1.13.24v.44h-2.5l-.18-.91c-.74.74-1.67,1.1-2.82,1.1-1.56,0-2.33-.9-2.33-2.71,0-.61.12-1.11.35-1.51.24-.4.61-.7,1.13-.91.52-.21,1.26-.32,2.25-.34l1.37-.04v-1.42c0-.63-.11-1.09-.34-1.38-.23-.3-.58-.45-1.06-.45-.65,0-1.24.15-1.77.46l-.33,1.13h-.54v-1.98c1.05-.23,1.97-.34,2.76-.34ZM122.69,151.79l-1.27.04c-.87.03-1.45.2-1.76.5-.31.3-.46.81-.46,1.52,0,1.14.46,1.7,1.38,1.7.44,0,.82-.05,1.14-.15.32-.1.64-.23.96-.38v-3.23ZM133.89,155.88c-.32.23-.75.42-1.31.55-.55.13-1.12.2-1.7.2-2.95,0-4.42-1.6-4.42-4.81,0-1.52.38-2.68,1.13-3.5s1.83-1.22,3.23-1.22c.87,0,1.82.1,2.86.3v2.54h-.53l-.42-1.61c-.54-.3-1.18-.46-1.93-.46-1.73,0-2.59,1.32-2.59,3.95,0,1.37.26,2.34.79,2.93.53.58,1.34.88,2.44.88.94,0,1.76-.11,2.46-.32v.58ZM137.66,146.61c0,.67-.02,1.16-.07,1.45.46-.26.99-.49,1.58-.69s1.09-.29,1.5-.29c.79,0,1.38.23,1.78.69.4.46.6,1.12.6,2v5.98l1.1.24v.44h-3.92v-.44l1.21-.24v-5.87c0-1.11-.54-1.67-1.61-1.67-.61,0-1.33.09-2.18.28v7.25l1.23.24v.44h-3.99v-.44l1.15-.24v-12.41l-1.36-.23v-.44h2.96v3.94Z"/>
    <path class="st12" d="M59.15,197.58l.36-.76c.5.46,1.37.79,2.24.79,1.17,0,1.68-.46,1.68-1.05,0-1.66-4.11-.61-4.11-3.13,0-1.05.81-1.94,2.6-1.94.79,0,1.62.21,2.18.6l-.32.78c-.59-.38-1.26-.55-1.86-.55-1.15,0-1.65.48-1.65,1.08,0,1.66,4.11.62,4.11,3.11,0,1.04-.83,1.93-2.63,1.93-1.04,0-2.05-.35-2.6-.85ZM66.5,195.43v-3.86h.97v3.82c0,1.5.69,2.18,1.91,2.18s1.92-.68,1.92-2.18v-3.82h.94v3.86c0,1.97-1.08,3-2.87,3s-2.87-1.04-2.87-3ZM80.84,191.57v6.78h-.79l-4.07-5.06v5.06h-.97v-6.78h.79l4.07,5.06v-5.06h.97ZM88.19,198.36l-1.46-2.08c-.14,0-.28.02-.43.02h-1.68v2.06h-.97v-6.78h2.64c1.76,0,2.83.89,2.83,2.36,0,1.05-.54,1.8-1.49,2.14l1.61,2.28h-1.06ZM88.16,193.94c0-.97-.65-1.52-1.89-1.52h-1.65v3.05h1.65c1.24,0,1.89-.56,1.89-1.53ZM91.48,191.57h.97v6.78h-.97v-6.78ZM94.64,197.58l.36-.76c.5.46,1.37.79,2.24.79,1.17,0,1.68-.46,1.68-1.05,0-1.66-4.11-.61-4.11-3.13,0-1.05.81-1.94,2.6-1.94.79,0,1.62.21,2.18.6l-.32.78c-.59-.38-1.26-.55-1.86-.55-1.15,0-1.65.48-1.65,1.08,0,1.66,4.11.62,4.11,3.11,0,1.04-.83,1.93-2.63,1.93-1.04,0-2.05-.35-2.6-.85ZM106.98,197.51v.84h-4.92v-6.78h4.79v.84h-3.82v2.08h3.4v.82h-3.4v2.19h3.95ZM114.06,192.42h-2.33v-.84h5.61v.84h-2.33v5.94h-.96v-5.94ZM118.53,194.96c0-1.99,1.53-3.47,3.61-3.47s3.59,1.47,3.59,3.47-1.53,3.47-3.59,3.47-3.61-1.48-3.61-3.47ZM124.77,194.96c0-1.5-1.12-2.61-2.63-2.61s-2.65,1.1-2.65,2.61,1.12,2.61,2.65,2.61,2.63-1.1,2.63-2.61ZM130.76,197.58l.36-.76c.5.46,1.37.79,2.24.79,1.17,0,1.68-.46,1.68-1.05,0-1.66-4.11-.61-4.11-3.13,0-1.05.81-1.94,2.6-1.94.79,0,1.62.21,2.18.6l-.32.78c-.59-.38-1.26-.55-1.86-.55-1.15,0-1.65.48-1.65,1.08,0,1.66,4.11.62,4.11,3.11,0,1.04-.83,1.93-2.63,1.93-1.04,0-2.05-.35-2.6-.85ZM144.01,191.57v6.78h-.97v-3.02h-3.9v3.02h-.97v-6.78h.97v2.92h3.9v-2.92h.97ZM146.27,194.96c0-1.99,1.53-3.47,3.61-3.47s3.59,1.47,3.59,3.47-1.53,3.47-3.59,3.47-3.61-1.48-3.61-3.47ZM152.51,194.96c0-1.5-1.12-2.61-2.63-2.61s-2.65,1.1-2.65,2.61,1.12,2.61,2.65,2.61,2.63-1.1,2.63-2.61ZM160.28,198.36l-1.46-2.08c-.14,0-.28.02-.43.02h-1.68v2.06h-.97v-6.78h2.64c1.76,0,2.83.89,2.83,2.36,0,1.05-.54,1.8-1.49,2.14l1.61,2.28h-1.06ZM160.25,193.94c0-.97-.65-1.52-1.89-1.52h-1.65v3.05h1.65c1.24,0,1.89-.56,1.89-1.53ZM168.49,197.51v.84h-4.92v-6.78h4.79v.84h-3.82v2.08h3.4v.82h-3.4v2.19h3.95ZM170.84,191.57h.97v5.94h3.67v.84h-4.64v-6.78ZM177.37,191.57h.97v6.78h-.97v-6.78ZM186.99,191.57v6.78h-.79l-4.07-5.06v5.06h-.97v-6.78h.79l4.07,5.06v-5.06h.97ZM194.72,197.51v.84h-4.92v-6.78h4.79v.84h-3.82v2.08h3.4v.82h-3.4v2.19h3.95ZM199.91,194.96c0-2,1.53-3.47,3.59-3.47,1.05,0,1.96.36,2.58,1.06l-.63.61c-.52-.55-1.16-.8-1.91-.8-1.53,0-2.67,1.1-2.67,2.61s1.13,2.61,2.67,2.61c.75,0,1.39-.26,1.91-.81l.63.61c-.62.7-1.53,1.07-2.59,1.07-2.05,0-3.58-1.46-3.58-3.47ZM212.4,196.66h-3.6l-.75,1.7h-1l3.07-6.78h.96l3.08,6.78h-1.02l-.75-1.7ZM212.06,195.89l-1.46-3.32-1.46,3.32h2.93ZM220.48,198.36l-1.46-2.08c-.14,0-.28.02-.43.02h-1.68v2.06h-.97v-6.78h2.64c1.76,0,2.83.89,2.83,2.36,0,1.05-.54,1.8-1.49,2.14l1.61,2.28h-1.06ZM220.45,193.94c0-.97-.65-1.52-1.89-1.52h-1.65v3.05h1.65c1.24,0,1.89-.56,1.89-1.53ZM228.7,197.51v.84h-4.92v-6.78h4.79v.84h-3.82v2.08h3.4v.82h-3.4v2.19h3.95Z"/>
    <g>
      <path class="st12" d="M198.73,108.67c-.4,0-.72-.29-.72-.64v-12.61c0-.35.32-.64.72-.64s.72.29.72.64v12.61c0,.35-.32.64-.72.64ZM221.09,114.79l8.18-10.32c.11-.14.15-.31.12-.48-.03-.17-.14-.31-.3-.41-.12-.08-.27-.12-.41-.12-.24,0-.46.1-.59.27l-8.18,10.32c-.23.29-.15.69.18.89.12.08.27.12.41.12.24,0,.46-.1.59-.27ZM231.85,129.78l13.27-4.56c.37-.13.55-.5.41-.83-.11-.24-.38-.41-.67-.41-.09,0-.18.01-.26.04l-13.27,4.56c-.37.13-.55.5-.41.83.11.24.38.41.67.41.09,0,.18-.01.26-.04ZM176.71,115.07c.15,0,.29-.04.41-.12.16-.1.26-.24.3-.41s0-.34-.12-.48l-8.18-10.32c-.13-.17-.36-.27-.59-.27-.15,0-.29.04-.41.12-.16.1-.26.24-.3.41-.03.17,0,.34.12.48l8.18,10.32c.13.17.36.27.59.27h0ZM166.29,129.41c.14-.33-.04-.7-.41-.83l-13.27-4.56c-.08-.03-.17-.04-.26-.04-.3,0-.56.16-.67.41-.14.33.04.7.41.83l13.27,4.56c.08.03.17.04.26.04.29,0,.57-.16.67-.41Z"/>
      <g class="st29">
        <rect class="st9" x="169.68" y="142.51" width="57.85" height=".82"/>
        <rect class="st16" x="169.68" y="141.69" width="57.85" height=".82"/>
        <rect class="st28" x="169.68" y="140.87" width="57.85" height=".82"/>
        <rect class="st22" x="169.68" y="140.05" width="57.85" height=".82"/>
        <rect class="st14" x="169.68" y="139.23" width="57.85" height=".82"/>
        <rect class="st10" x="169.68" y="138.41" width="57.85" height=".82"/>
        <rect class="st2" x="169.68" y="137.59" width="57.85" height=".82"/>
        <rect class="st18" x="169.68" y="136.77" width="57.85" height=".82"/>
        <rect class="st25" x="169.68" y="135.95" width="57.85" height=".82"/>
        <rect class="st17" x="169.68" y="135.13" width="57.85" height=".82"/>
        <rect class="st3" x="169.68" y="134.31" width="57.85" height=".82"/>
        <rect class="st1" x="169.68" y="133.49" width="57.85" height=".82"/>
        <rect class="st20" x="169.68" y="132.67" width="57.85" height=".82"/>
        <rect class="st19" x="169.68" y="131.85" width="57.85" height=".82"/>
        <rect class="st15" x="169.68" y="131.04" width="57.85" height=".82"/>
        <rect class="st11" x="169.68" y="130.22" width="57.85" height=".82"/>
        <rect class="st7" x="169.68" y="129.4" width="57.85" height=".82"/>
        <rect class="st23" x="169.68" y="128.58" width="57.85" height=".82"/>
        <rect class="st26" x="169.68" y="127.76" width="57.85" height=".82"/>
        <rect class="st5" x="169.68" y="126.94" width="57.85" height=".82"/>
        <rect class="st6" x="169.68" y="126.12" width="57.85" height=".82"/>
        <rect class="st6" x="169.68" y="125.3" width="57.85" height=".82"/>
        <rect class="st27" x="169.68" y="124.48" width="57.85" height=".82"/>
        <rect class="st4" x="169.68" y="123.66" width="57.85" height=".82"/>
        <rect class="st4" x="169.68" y="122.84" width="57.85" height=".82"/>
        <rect class="st4" x="169.68" y="122.02" width="57.85" height=".82"/>
        <rect class="st21" x="169.68" y="121.2" width="57.85" height=".82"/>
        <rect class="st21" x="169.68" y="120.38" width="57.85" height=".82"/>
        <rect class="st21" x="169.68" y="115.59" width="57.85" height="4.79"/>
      </g>
      <path class="st24" d="M221.91,157.38c-14.18.1-27.81-6.48-42.07-6.61-7.79-.18-15.63.93-24.02,3.04-.66.14-1.23-.04-1.37-.63-.24-.89.54-1.48,1.36-1.63,3.12-.81,6.23-1.45,9.29-1.94,8.63-1.4,17.48-1.55,26.04.11,10.11,1.98,20.62,5.49,30.88,5.38,6.46.05,12.76-.83,19.09-2.36.72-.18,1.4-.06,1.55.6.22.87-.47,1.44-1.27,1.59-6.73,1.65-13.11,2.46-19.39,2.43h-.09Z"/>
      <path class="st13" d="M221.99,148.23c-14.18.09-27.65-6.41-41.86-6.6-7.7-.18-15.26.79-23.6,2.9-.66.19-1.66.4-1.95-.32-.05-.14-.1-.29-.1-.44-.05-.79.7-1.2,1.4-1.36,3.11-.81,6.23-1.45,9.29-1.94,8.63-1.4,17.47-1.55,26.04.11,10.11,1.98,20.62,5.49,30.88,5.39,6.46.05,12.76-.83,19.09-2.36.72-.18,1.4-.06,1.55.6.22.87-.47,1.44-1.27,1.59-6.73,1.65-13.11,2.46-19.39,2.43h-.09Z"/>
    </g>
  </g>
</svg>