<?xml version="1.0" encoding="UTF-8"?>
<svg id="Layer_1" xmlns="http://www.w3.org/2000/svg" xmlns:xlink="http://www.w3.org/1999/xlink" version="1.1" viewBox="0 0 288 288">
  <!-- Generator: Adobe Illustrator 29.8.2, SVG Export Plug-In . SVG Version: 2.1.1 Build 3)  -->
  <defs>
    <style>
      .st0 {
        fill: none;
      }

      .st1 {
        fill: #ffa100;
      }

      .st2 {
        fill: #ff9b00;
      }

      .st3 {
        fill: #ffa000;
      }

      .st4 {
        fill: #ffad00;
      }

      .st5 {
        fill: #fa0;
      }

      .st6 {
        fill: #ffab00;
      }

      .st7 {
        fill: #ffa700;
      }

      .st8 {
        fill: #fc7e5b;
      }

      .st9 {
        fill: #ff9200;
      }

      .st10 {
        fill: #ff9a00;
      }

      .st11 {
        fill: #ffa600;
      }

      .st12 {
        fill: #004e6c;
      }

      .st13 {
        fill: #004e6c;
      }

      .st14 {
        fill: #ff9800;
      }

      .st15 {
        fill: orange;
      }

      .st16 {
        fill: #ff9400;
      }

      .st17 {
        fill: #ff9f00;
      }

      .st18 {
        fill: #ff9c00;
      }

      .st19 {
        fill: #ffa400;
      }

      .st20 {
        fill: #ffa300;
      }

      .st21 {
        fill: #ffae00;
      }

      .st22 {
        fill: #ff9700;
      }

      .st23 {
        fill: #ffa800;
      }

      .st24 {
        fill: #009ab2;
      }

      .st25 {
        fill: #ff9e00;
      }

      .st26 {
        fill: #ffa900;
      }

      .st27 {
        fill: #ffac00;
      }

      .st28 {
        fill: #ff9500;
      }

      .st29 {
        clip-path: url(#clippath);
      }
    </style>
    <clipPath id="clippath">
      <path class="st0" d="M102.16,130.81c2.58-.14,5.18-.22,7.73-.22,7.93,0,15.79.71,23.37,2.1,6.27,1.15,12.56,2.69,18.64,4.19,4.02.99,8.17,2,12.26,2.89,9.45,2.06,18.31,3.06,27.1,3.06,1.05,0,2.1-.01,3.15-.04,1.72-.05,3.46-.15,5.21-.27-1.83-29.4-26.22-52.68-56.07-52.68-26.21,0-48.22,17.95-54.44,42.23,4.41-.6,8.77-1.02,13.05-1.26Z"/>
    </clipPath>
  </defs>
  <path class="st8" d="M46.93,223.06l-.16.87h-5.98l.16-.87,1.83-.44,11.14-20.78h3.12l4.08,20.78,2.04.44-.18.87h-7.76l.18-.87,2.34-.44-1.05-6.32h-8.63l-3.35,6.32,2.21.44ZM54.43,204.19l-5.62,10.63h7.63l-2.01-10.63ZM75.85,208.55c.04-.52.41-2.76,1.11-6.71l-2.52-.39.13-.74h5.29l-3.92,22.07,1.85.41-.13.74h-4.66l.47-2.55c-1.84,1.93-3.52,2.89-5.05,2.89-1.34,0-2.4-.5-3.19-1.51-.78-1.01-1.18-2.34-1.18-4.01,0-1.86.4-3.61,1.2-5.25.8-1.64,1.9-2.93,3.29-3.89,1.39-.95,2.92-1.43,4.59-1.43,1.02,0,1.92.12,2.7.38ZM75.47,210.25c-.38-.25-.77-.45-1.18-.59-.4-.14-.89-.21-1.47-.21-1.02,0-1.98.4-2.88,1.21-.89.81-1.61,1.92-2.16,3.33-.54,1.42-.82,2.88-.82,4.39,0,1.17.24,2.1.72,2.79.48.7,1.13,1.04,1.94,1.04.61,0,1.27-.2,1.98-.6s1.4-.96,2.07-1.67l1.78-9.7ZM84.16,220.77c0,.49.13.89.39,1.19.26.3.68.46,1.24.46.82,0,1.7-.34,2.65-1.02.95-.68,1.73-1.52,2.34-2.51l1.81-10.32h2.71l-2.5,14.21,1.93.41-.13.74h-4.54l.44-3.15c-.9,1.17-1.85,2.05-2.83,2.65-.98.6-1.95.9-2.91.9-1.1,0-1.93-.3-2.48-.89-.56-.59-.83-1.45-.83-2.56,0-.16.03-.46.09-.87s.65-3.85,1.76-10.3l-1.81-.39.13-.73h4.59l-1.67,9.49c-.25,1.37-.38,2.28-.38,2.71ZM101.2,222.78l2.57.41-.13.74h-5.34l3.87-22.09-2.11-.39.13-.74h4.88l-3.87,22.07ZM110.12,221.08c0,.49.12.86.37,1.1.25.25.56.37.94.37.79,0,1.62-.16,2.48-.49l.34.77c-1.34.95-2.7,1.42-4.07,1.42-.86,0-1.54-.26-2.03-.78-.5-.52-.74-1.25-.74-2.19,0-.32.03-.69.09-1.12.06-.43.66-3.84,1.79-10.22h-2.01l.13-.74,2.17-.64,2.24-3.48h1.04l-.6,3.48h3.51l-.26,1.37h-3.51l-1.58,8.97c-.2,1-.29,1.73-.29,2.17ZM135.25,223.92h-.57l-3.77-18.84-3.09,17.53,2.88.44-.16.87h-7.45l.16-.87,2.86-.44,3.41-19.31-2.74-.42.16-.87h6.24l3.37,16.71,9.77-16.71h6.57l-.16.87-2.88.42-3.41,19.31,2.74.44-.16.87h-8.89l.16-.87,3.01-.44,3.09-17.53-11.12,18.84ZM165.44,211.51c0,1.48-.91,2.74-2.74,3.79-1.83,1.04-4.29,1.67-7.37,1.88l-.07,1.19c0,1.38.29,2.43.87,3.13.58.7,1.45,1.05,2.59,1.05.98,0,1.88-.17,2.71-.5.83-.33,1.6-.71,2.32-1.14l.47.69c-1,.85-2.06,1.5-3.18,1.96s-2.18.69-3.18.69c-1.76,0-3.12-.49-4.08-1.48-.95-.99-1.43-2.4-1.43-4.24s.38-3.51,1.15-5.09,1.83-2.85,3.19-3.82c1.36-.97,2.79-1.46,4.28-1.46,1.34,0,2.42.31,3.23.92.81.62,1.22,1.42,1.22,2.43ZM155.45,216.15c2.16-.16,3.88-.67,5.18-1.52s1.94-1.89,1.94-3.12c0-.61-.17-1.11-.5-1.5-.33-.39-.81-.59-1.45-.59-.76,0-1.5.31-2.22.93s-1.34,1.45-1.86,2.5c-.52,1.05-.89,2.15-1.09,3.3ZM178.98,208.55c.04-.52.41-2.76,1.11-6.71l-2.52-.39.13-.74h5.29l-3.92,22.07,1.85.41-.13.74h-4.66l.47-2.55c-1.84,1.93-3.52,2.89-5.05,2.89-1.34,0-2.4-.5-3.19-1.51-.78-1.01-1.18-2.34-1.18-4.01,0-1.86.4-3.61,1.2-5.25.8-1.64,1.9-2.93,3.29-3.89,1.39-.95,2.92-1.43,4.59-1.43,1.02,0,1.92.12,2.7.38ZM178.6,210.25c-.38-.25-.77-.45-1.18-.59-.4-.14-.89-.21-1.47-.21-1.02,0-1.98.4-2.88,1.21-.89.81-1.61,1.92-2.16,3.33-.54,1.42-.82,2.88-.82,4.39,0,1.17.24,2.1.72,2.79.48.7,1.13,1.04,1.94,1.04.61,0,1.27-.2,1.99-.6.71-.4,1.4-.96,2.07-1.67l1.78-9.7ZM187.69,222.78l2.56.41-.13.74h-5.34l2.5-14.21-2.11-.41.13-.73h4.88l-2.5,14.21ZM191.2,203.55c0,.48-.17.89-.52,1.24-.35.35-.77.52-1.26.52s-.89-.17-1.24-.52c-.35-.35-.52-.76-.52-1.24s.17-.91.52-1.26.76-.52,1.24-.52.91.17,1.26.52.52.77.52,1.26ZM204.86,221.6c-.88.82-1.87,1.46-2.97,1.94s-2.15.71-3.14.71c-1.75,0-3.11-.51-4.07-1.52-.96-1.01-1.44-2.41-1.44-4.2,0-1.9.38-3.62,1.14-5.19.76-1.56,1.85-2.82,3.26-3.77,1.41-.95,2.89-1.42,4.44-1.42.77,0,1.59.08,2.47.25.87.16,1.59.37,2.16.6l-.74,4.28h-.9l-.26-2.84c-.69-.69-1.6-1.03-2.74-1.03-1.05,0-2.02.39-2.93,1.16s-1.64,1.85-2.18,3.23c-.54,1.38-.82,2.9-.82,4.56,0,2.79,1.12,4.18,3.37,4.18,1.56,0,3.18-.54,4.87-1.63l.49.69ZM211.83,222.78l2.56.41-.13.74h-5.34l2.5-14.21-2.11-.41.13-.73h4.88l-2.5,14.21ZM215.34,203.55c0,.48-.17.89-.52,1.24-.35.35-.77.52-1.26.52s-.89-.17-1.24-.52c-.35-.35-.52-.76-.52-1.24s.17-.91.52-1.26.76-.52,1.24-.52.91.17,1.26.52.52.77.52,1.26ZM228.69,211.7c0-.49-.13-.89-.39-1.19-.26-.3-.67-.46-1.24-.46-.81,0-1.69.34-2.64,1.03-.95.69-1.74,1.54-2.36,2.55l-1.8,10.29h-2.71l2.5-14.23-1.93-.41.13-.74h4.54l-.44,3.14c.92-1.18,1.86-2.06,2.84-2.65.98-.59,1.94-.88,2.89-.88,1.1,0,1.93.3,2.48.89.56.59.83,1.45.83,2.56,0,.15-.02.39-.07.7-.04.32-.64,3.81-1.78,10.49l2.14.39-.13.74h-4.92l1.67-9.51c.25-1.38.38-2.29.38-2.71ZM247.18,211.51c0,1.48-.91,2.74-2.74,3.79-1.83,1.04-4.29,1.67-7.37,1.88l-.07,1.19c0,1.38.29,2.43.87,3.13.58.7,1.45,1.05,2.59,1.05.98,0,1.88-.17,2.71-.5.83-.33,1.6-.71,2.32-1.14l.47.69c-1,.85-2.06,1.5-3.18,1.96s-2.18.69-3.18.69c-1.76,0-3.12-.49-4.08-1.48-.95-.99-1.43-2.4-1.43-4.24s.38-3.51,1.15-5.09,1.83-2.85,3.19-3.82c1.36-.97,2.79-1.46,4.28-1.46,1.34,0,2.42.31,3.23.92.81.62,1.22,1.42,1.22,2.43ZM237.2,216.15c2.16-.16,3.88-.67,5.18-1.52s1.94-1.89,1.94-3.12c0-.61-.17-1.11-.5-1.5-.33-.39-.81-.59-1.45-.59-.76,0-1.5.31-2.22.93s-1.34,1.45-1.86,2.5c-.52,1.05-.89,2.15-1.09,3.3Z"/>
  <path class="st12" d="M73.26,237.5l.3-.63c.42.38,1.14.66,1.88.66.98,0,1.4-.38,1.4-.88,0-1.39-3.44-.51-3.44-2.62,0-.88.68-1.62,2.18-1.62.67,0,1.36.18,1.83.5l-.27.65c-.5-.32-1.06-.46-1.56-.46-.97,0-1.38.41-1.38.9,0,1.39,3.44.52,3.44,2.61,0,.87-.7,1.62-2.2,1.62-.87,0-1.72-.29-2.18-.71ZM79.42,235.7v-3.23h.81v3.2c0,1.26.58,1.83,1.6,1.83s1.61-.57,1.61-1.83v-3.2h.79v3.23c0,1.65-.9,2.52-2.4,2.52s-2.4-.87-2.4-2.52ZM91.44,232.47v5.68h-.67l-3.41-4.24v4.24h-.81v-5.68h.67l3.41,4.24v-4.24h.81ZM97.59,238.15l-1.23-1.75c-.11,0-.24.02-.36.02h-1.4v1.73h-.81v-5.68h2.22c1.48,0,2.37.75,2.37,1.98,0,.88-.45,1.51-1.25,1.79l1.35,1.91h-.88ZM97.57,234.45c0-.81-.54-1.27-1.58-1.27h-1.38v2.56h1.38c1.04,0,1.58-.47,1.58-1.28ZM100.35,232.47h.81v5.68h-.81v-5.68ZM103,237.5l.3-.63c.42.38,1.14.66,1.88.66.98,0,1.4-.38,1.4-.88,0-1.39-3.44-.51-3.44-2.62,0-.88.68-1.62,2.18-1.62.67,0,1.36.18,1.83.5l-.27.65c-.5-.32-1.06-.46-1.56-.46-.97,0-1.38.41-1.38.9,0,1.39,3.44.52,3.44,2.61,0,.87-.7,1.62-2.2,1.62-.87,0-1.72-.29-2.18-.71ZM113.34,237.45v.71h-4.12v-5.68h4.01v.71h-3.2v1.75h2.85v.69h-2.85v1.83h3.31ZM119.27,233.18h-1.95v-.71h4.7v.71h-1.95v4.98h-.8v-4.98ZM123.02,235.31c0-1.66,1.28-2.91,3.03-2.91s3.01,1.23,3.01,2.91-1.28,2.91-3.01,2.91-3.03-1.24-3.03-2.91ZM128.24,235.31c0-1.26-.94-2.18-2.2-2.18s-2.22.92-2.22,2.18.94,2.18,2.22,2.18,2.2-.93,2.2-2.18ZM133.27,237.5l.3-.63c.42.38,1.14.66,1.88.66.98,0,1.4-.38,1.4-.88,0-1.39-3.44-.51-3.44-2.62,0-.88.68-1.62,2.18-1.62.67,0,1.36.18,1.83.5l-.27.65c-.5-.32-1.06-.46-1.56-.46-.97,0-1.38.41-1.38.9,0,1.39,3.44.52,3.44,2.61,0,.87-.7,1.62-2.2,1.62-.87,0-1.72-.29-2.18-.71ZM144.37,232.47v5.68h-.81v-2.53h-3.26v2.53h-.81v-5.68h.81v2.44h3.26v-2.44h.81ZM146.27,235.31c0-1.66,1.28-2.91,3.03-2.91s3.01,1.23,3.01,2.91-1.28,2.91-3.01,2.91-3.03-1.24-3.03-2.91ZM151.49,235.31c0-1.26-.94-2.18-2.2-2.18s-2.22.92-2.22,2.18.94,2.18,2.22,2.18,2.2-.93,2.2-2.18ZM158,238.15l-1.23-1.75c-.11,0-.24.02-.36.02h-1.4v1.73h-.81v-5.68h2.22c1.48,0,2.37.75,2.37,1.98,0,.88-.45,1.51-1.25,1.79l1.35,1.91h-.88ZM157.98,234.45c0-.81-.54-1.27-1.58-1.27h-1.38v2.56h1.38c1.04,0,1.58-.47,1.58-1.28ZM164.88,237.45v.71h-4.12v-5.68h4.01v.71h-3.2v1.75h2.85v.69h-2.85v1.83h3.31ZM166.85,232.47h.81v4.98h3.08v.71h-3.89v-5.68ZM172.33,232.47h.81v5.68h-.81v-5.68ZM180.38,232.47v5.68h-.67l-3.41-4.24v4.24h-.81v-5.68h.67l3.41,4.24v-4.24h.81ZM186.87,237.45v.71h-4.12v-5.68h4.01v.71h-3.2v1.75h2.85v.69h-2.85v1.83h3.31ZM191.21,235.31c0-1.68,1.28-2.91,3.01-2.91.88,0,1.64.3,2.16.88l-.53.51c-.44-.46-.97-.67-1.6-.67-1.28,0-2.23.92-2.23,2.18s.95,2.18,2.23,2.18c.62,0,1.16-.22,1.6-.68l.53.51c-.52.58-1.28.89-2.17.89-1.72,0-3-1.23-3-2.91ZM201.68,236.73h-3.02l-.62,1.42h-.84l2.57-5.68h.8l2.58,5.68h-.85l-.62-1.42ZM201.39,236.08l-1.23-2.78-1.23,2.78h2.45ZM208.45,238.15l-1.23-1.75c-.11,0-.24.02-.36.02h-1.4v1.73h-.81v-5.68h2.22c1.48,0,2.37.75,2.37,1.98,0,.88-.45,1.51-1.25,1.79l1.35,1.91h-.88ZM208.43,234.45c0-.81-.54-1.27-1.58-1.27h-1.38v2.56h1.38c1.04,0,1.58-.47,1.58-1.28ZM215.33,237.45v.71h-4.12v-5.68h4.01v.71h-3.2v1.75h2.85v.69h-2.85v1.83h3.31Z"/>
  <path class="st13" d="M112.4,180.31v.51l-1.43.25-5.23,12.55h-.5l-5.29-12.55-1.47-.25v-.51h5.26v.51l-1.75.25,3.94,9.58,3.93-9.58-1.71-.25v-.51h4.23ZM112.94,188.74v.17c0,.89.1,1.59.3,2.08s.5.87.91,1.13.95.39,1.62.39c.35,0,.76-.03,1.24-.09.48-.06.87-.12,1.18-.19v.54c-.31.2-.73.38-1.27.52-.53.15-1.08.22-1.64.22-1.42,0-2.46-.38-3.11-1.15-.66-.76-.99-1.99-.99-3.68,0-1.59.33-2.78,1-3.56.67-.78,1.62-1.17,2.85-1.17,2.34,0,3.51,1.33,3.51,3.98v.8h-5.61ZM115.05,184.74c-.67,0-1.19.27-1.55.82-.36.54-.54,1.35-.54,2.41h3.9c0-1.16-.15-1.99-.45-2.48s-.75-.74-1.37-.74ZM125.69,183.96v2.47h-.42l-.56-1.07c-.32,0-.71.04-1.15.13-.44.09-.83.2-1.15.34v6.82l1.56.24v.44h-4.33v-.44l1.16-.24v-7.77l-1.16-.24v-.44h2.66l.09,1.14c.39-.32.91-.63,1.58-.93.66-.3,1.19-.45,1.58-.45h.15ZM135.05,188.72c0,3.2-1.42,4.81-4.27,4.81-1.37,0-2.41-.41-3.11-1.23-.7-.82-1.05-2.01-1.05-3.57s.35-2.72,1.05-3.53c.7-.82,1.76-1.22,3.18-1.22s2.43.4,3.14,1.2c.71.8,1.06,1.99,1.06,3.56ZM133.3,188.72c0-1.4-.2-2.41-.61-3.04-.41-.63-1.04-.94-1.91-.94s-1.46.3-1.84.9c-.38.6-.57,1.63-.57,3.08s.19,2.51.58,3.12c.38.61,1,.92,1.83.92s1.49-.32,1.9-.95c.42-.63.62-1.66.62-3.09ZM141.35,193.33v-.51l1.67-.26v-11.48l-1.67-.25v-.51h5.95c1.65,0,2.86.25,3.62.73.76.49,1.15,1.26,1.15,2.33,0,.76-.24,1.42-.7,1.95-.47.54-1.13.9-1.98,1.08,1.17.12,2.08.46,2.72,1.02.64.56.96,1.28.96,2.16,0,1.25-.43,2.2-1.3,2.84-.86.64-2.12.97-3.78.97l-4.16-.06h-2.49ZM150.08,183.46c0-.8-.25-1.38-.75-1.74s-1.31-.54-2.43-.54h-2.01v4.92h2.13c1.05,0,1.82-.21,2.32-.62s.74-1.09.74-2.02ZM151.06,189.62c0-.91-.3-1.58-.91-2s-1.58-.64-2.92-.64h-2.33v5.48c.89.04,1.84.06,2.85.06,1.11,0,1.93-.23,2.49-.7.55-.47.83-1.2.83-2.19ZM156.57,188.74v.17c0,.89.1,1.59.3,2.08s.5.87.91,1.13.95.39,1.62.39c.35,0,.76-.03,1.24-.09.48-.06.87-.12,1.18-.19v.54c-.31.2-.73.38-1.27.52-.53.15-1.08.22-1.64.22-1.42,0-2.46-.38-3.11-1.15-.66-.76-.99-1.99-.99-3.68,0-1.59.33-2.78,1-3.56.67-.78,1.62-1.17,2.85-1.17,2.34,0,3.51,1.33,3.51,3.98v.8h-5.61ZM158.67,184.74c-.67,0-1.19.27-1.55.82-.36.54-.54,1.35-.54,2.41h3.9c0-1.16-.15-1.99-.45-2.48s-.75-.74-1.37-.74ZM167.38,184c1,0,1.73.2,2.2.61.47.41.7,1.03.7,1.87v6.17l1.14.24v.44h-2.5l-.18-.91c-.74.74-1.68,1.11-2.83,1.11-1.56,0-2.34-.91-2.34-2.72,0-.61.12-1.11.35-1.51s.61-.7,1.13-.91c.52-.21,1.27-.33,2.25-.34l1.37-.04v-1.43c0-.63-.11-1.09-.34-1.39-.23-.3-.58-.45-1.06-.45-.65,0-1.24.15-1.78.46l-.33,1.14h-.54v-1.99c1.05-.23,1.97-.34,2.77-.34ZM168.67,188.68l-1.27.04c-.87.03-1.46.2-1.76.5-.31.3-.46.81-.46,1.52,0,1.14.46,1.71,1.39,1.71.44,0,.82-.05,1.14-.15s.64-.23.97-.38v-3.24ZM179.91,192.77c-.32.23-.75.42-1.31.55s-1.13.2-1.71.2c-2.96,0-4.44-1.61-4.44-4.83,0-1.52.38-2.69,1.13-3.51.75-.82,1.83-1.23,3.24-1.23.87,0,1.83.1,2.86.3v2.54h-.53l-.42-1.61c-.54-.3-1.18-.46-1.93-.46-1.74,0-2.6,1.32-2.6,3.96,0,1.37.26,2.35.79,2.94.53.59,1.34.88,2.45.88.94,0,1.77-.11,2.47-.32v.58ZM183.68,183.48c0,.67-.02,1.16-.07,1.46.47-.27,1-.5,1.59-.69.59-.19,1.09-.29,1.5-.29.79,0,1.39.23,1.79.69.4.46.6,1.13.6,2v6l1.11.24v.44h-3.93v-.44l1.21-.24v-5.88c0-1.11-.54-1.67-1.61-1.67-.61,0-1.34.09-2.18.28v7.27l1.23.24v.44h-4v-.44l1.16-.24v-12.45l-1.36-.23v-.44h2.97v3.95Z"/>
  <g>
    <path class="st12" d="M144.6,76.62c-.76,0-1.38-.55-1.38-1.22v-24.08c0-.67.62-1.22,1.38-1.22s1.38.55,1.38,1.22v24.08c0,.67-.62,1.22-1.38,1.22ZM187.31,88.32l15.62-19.72c.21-.27.29-.59.23-.91-.06-.32-.26-.6-.57-.79-.23-.14-.51-.22-.79-.22-.45,0-.87.19-1.13.52l-15.62,19.72c-.44.55-.29,1.31.34,1.7.23.14.51.22.79.22.45,0,.87-.19,1.13-.52ZM207.88,116.94l25.35-8.72c.71-.24,1.06-.95.79-1.58-.2-.47-.72-.78-1.28-.78-.17,0-.34.03-.5.08l-25.35,8.72c-.71.24-1.06.95-.79,1.58.2.47.72.78,1.29.78.17,0,.34-.03.5-.08ZM102.54,88.84c.28,0,.56-.08.79-.22.3-.19.5-.47.57-.79s-.02-.64-.23-.91l-15.62-19.72c-.26-.33-.68-.52-1.13-.52-.28,0-.56.08-.79.22-.3.19-.5.47-.56.79-.06.32.02.64.23.91l15.62,19.72c.26.33.68.52,1.13.52h0ZM82.63,116.24c.27-.63-.08-1.33-.79-1.58l-25.35-8.72c-.16-.06-.33-.08-.5-.08-.57,0-1.08.31-1.29.78-.27.63.08,1.33.79,1.58l25.35,8.72c.16.06.33.08.5.08.56,0,1.08-.31,1.28-.78Z"/>
    <g class="st29">
      <rect class="st9" x="89.11" y="141.26" width="110.51" height="1.57"/>
      <rect class="st16" x="89.11" y="139.7" width="110.51" height="1.57"/>
      <rect class="st28" x="89.11" y="138.13" width="110.51" height="1.57"/>
      <rect class="st22" x="89.11" y="136.57" width="110.51" height="1.57"/>
      <rect class="st14" x="89.11" y="135" width="110.51" height="1.57"/>
      <rect class="st10" x="89.11" y="133.43" width="110.51" height="1.57"/>
      <rect class="st2" x="89.11" y="131.87" width="110.51" height="1.57"/>
      <rect class="st18" x="89.11" y="130.3" width="110.51" height="1.57"/>
      <rect class="st25" x="89.11" y="128.74" width="110.51" height="1.57"/>
      <rect class="st17" x="89.11" y="127.17" width="110.51" height="1.57"/>
      <rect class="st3" x="89.11" y="125.61" width="110.51" height="1.57"/>
      <rect class="st1" x="89.11" y="124.04" width="110.51" height="1.57"/>
      <rect class="st20" x="89.11" y="122.47" width="110.51" height="1.57"/>
      <rect class="st19" x="89.11" y="120.91" width="110.51" height="1.57"/>
      <rect class="st15" x="89.11" y="119.34" width="110.51" height="1.57"/>
      <rect class="st11" x="89.11" y="117.78" width="110.51" height="1.57"/>
      <rect class="st7" x="89.11" y="116.21" width="110.51" height="1.57"/>
      <rect class="st23" x="89.11" y="114.65" width="110.51" height="1.57"/>
      <rect class="st26" x="89.11" y="113.08" width="110.51" height="1.57"/>
      <rect class="st5" x="89.11" y="111.51" width="110.51" height="1.57"/>
      <rect class="st6" x="89.11" y="109.95" width="110.51" height="1.57"/>
      <rect class="st6" x="89.11" y="108.38" width="110.51" height="1.57"/>
      <rect class="st27" x="89.11" y="106.82" width="110.51" height="1.57"/>
      <rect class="st4" x="89.11" y="105.25" width="110.51" height="1.57"/>
      <rect class="st4" x="89.11" y="103.69" width="110.51" height="1.57"/>
      <rect class="st4" x="89.11" y="102.12" width="110.51" height="1.57"/>
      <rect class="st21" x="89.11" y="100.55" width="110.51" height="1.57"/>
      <rect class="st21" x="89.11" y="98.99" width="110.51" height="1.57"/>
      <rect class="st21" x="89.11" y="89.84" width="110.51" height="9.15"/>
    </g>
    <path class="st24" d="M188.89,169.67c-27.09.18-53.13-12.37-80.37-12.62-14.87-.35-29.86,1.77-45.89,5.82-1.25.27-2.35-.07-2.61-1.2-.47-1.7,1.04-2.82,2.6-3.11,5.95-1.54,11.91-2.78,17.75-3.71,16.48-2.67,33.4-2.96,49.75.21,19.31,3.78,39.38,10.49,59,10.29,12.34.09,24.38-1.59,36.47-4.5,1.37-.35,2.67-.12,2.96,1.15.42,1.67-.9,2.74-2.42,3.04-12.85,3.15-25.04,4.7-37.05,4.64h-.18Z"/>
    <path class="st13" d="M189.05,152.19c-27.09.17-52.81-12.25-79.96-12.61-14.71-.34-29.15,1.52-45.08,5.53-1.25.36-3.18.76-3.72-.61-.09-.27-.19-.55-.19-.84-.09-1.52,1.33-2.3,2.67-2.59,5.95-1.54,11.9-2.77,17.75-3.71,16.49-2.67,33.38-2.96,49.75.21,19.3,3.78,39.39,10.49,58.99,10.29,12.34.09,24.38-1.59,36.47-4.5,1.37-.35,2.67-.12,2.96,1.15.42,1.67-.9,2.74-2.42,3.04-12.86,3.15-25.04,4.7-37.05,4.64h-.18Z"/>
  </g>
</svg>