<?xml version="1.0" encoding="UTF-8"?>
<svg id="Layer_1" xmlns="http://www.w3.org/2000/svg" xmlns:xlink="http://www.w3.org/1999/xlink" version="1.1" viewBox="0 0 288 288">
  <!-- Generator: Adobe Illustrator 29.8.2, SVG Export Plug-In . SVG Version: 2.1.1 Build 3)  -->
  <defs>
    <style>
      .st0 {
        fill: none;
      }

      .st1 {
        fill: #ffa100;
      }

      .st2 {
        fill: #ff9b00;
      }

      .st3 {
        fill: #ffa000;
      }

      .st4 {
        fill: #ffad00;
      }

      .st5 {
        fill: #fa0;
      }

      .st6 {
        fill: #ffab00;
      }

      .st7 {
        fill: #ffa700;
      }

      .st8 {
        fill: #ff9200;
      }

      .st9 {
        fill: #ff9a00;
      }

      .st10 {
        fill: #ffa600;
      }

      .st11 {
        fill: #004e6c;
      }

      .st12 {
        fill: #004e6c;
      }

      .st13 {
        fill: #ff9800;
      }

      .st14 {
        fill: orange;
      }

      .st15 {
        fill: #ff9400;
      }

      .st16 {
        fill: #ff9f00;
      }

      .st17 {
        fill: #ff9c00;
      }

      .st18 {
        fill: #ffa400;
      }

      .st19 {
        fill: #ffa300;
      }

      .st20 {
        fill: #ffae00;
      }

      .st21 {
        fill: #ff9700;
      }

      .st22 {
        fill: #ffa800;
      }

      .st23 {
        fill: #009ab2;
      }

      .st24 {
        fill: #ff9e00;
      }

      .st25 {
        fill: #ffa900;
      }

      .st26 {
        fill: #ffac00;
      }

      .st27 {
        fill: #ff9500;
      }

      .st28 {
        clip-path: url(#clippath);
      }

      .st29 {
        fill: #f6f1e6;
      }
    </style>
    <clipPath id="clippath">
      <path class="st0" d="M101.8,164.92c2.58-.14,5.18-.22,7.73-.22,7.93,0,15.79.71,23.37,2.1,6.27,1.15,12.56,2.69,18.64,4.19,4.02.99,8.17,2,12.26,2.89,9.45,2.06,18.31,3.06,27.1,3.06,1.05,0,2.1-.01,3.15-.04,1.72-.05,3.46-.15,5.21-.27-1.83-29.4-26.22-52.68-56.07-52.68-26.21,0-48.22,17.95-54.44,42.23,4.41-.6,8.77-1.02,13.05-1.26Z"/>
    </clipPath>
  </defs>
  <rect class="st29" width="288" height="288"/>
  <g>
    <path class="st11" d="M144.24,110.73c-.76,0-1.38-.55-1.38-1.22v-24.08c0-.67.62-1.22,1.38-1.22s1.38.55,1.38,1.22v24.08c0,.67-.62,1.22-1.38,1.22ZM186.95,122.43l15.62-19.72c.21-.27.29-.59.23-.91-.06-.32-.26-.6-.57-.79-.23-.14-.51-.22-.79-.22-.45,0-.87.19-1.13.52l-15.62,19.72c-.44.55-.29,1.31.34,1.7.23.14.51.22.79.22.45,0,.87-.19,1.13-.52ZM207.52,151.05l25.35-8.72c.71-.24,1.06-.95.79-1.58-.2-.47-.72-.78-1.28-.78-.17,0-.34.03-.5.08l-25.35,8.72c-.71.24-1.06.95-.79,1.58.2.47.72.78,1.29.78.17,0,.34-.03.5-.08ZM102.18,122.95c.28,0,.56-.08.79-.22.3-.19.5-.47.57-.79s-.02-.64-.23-.91l-15.62-19.72c-.26-.33-.68-.52-1.13-.52-.28,0-.56.08-.79.22-.3.19-.5.47-.56.79-.06.32.02.64.23.91l15.62,19.72c.26.33.68.52,1.13.52h0ZM82.27,150.35c.27-.63-.08-1.33-.79-1.58l-25.35-8.72c-.16-.06-.33-.08-.5-.08-.57,0-1.08.31-1.29.78-.27.63.08,1.33.79,1.58l25.35,8.72c.16.06.33.08.5.08.56,0,1.08-.31,1.28-.78Z"/>
    <g class="st28">
      <rect class="st8" x="88.75" y="175.37" width="110.51" height="1.57"/>
      <rect class="st15" x="88.75" y="173.81" width="110.51" height="1.57"/>
      <rect class="st27" x="88.75" y="172.24" width="110.51" height="1.57"/>
      <rect class="st21" x="88.75" y="170.68" width="110.51" height="1.57"/>
      <rect class="st13" x="88.75" y="169.11" width="110.51" height="1.57"/>
      <rect class="st9" x="88.75" y="167.55" width="110.51" height="1.57"/>
      <rect class="st2" x="88.75" y="165.98" width="110.51" height="1.57"/>
      <rect class="st17" x="88.75" y="164.41" width="110.51" height="1.57"/>
      <rect class="st24" x="88.75" y="162.85" width="110.51" height="1.57"/>
      <rect class="st16" x="88.75" y="161.28" width="110.51" height="1.57"/>
      <rect class="st3" x="88.75" y="159.72" width="110.51" height="1.57"/>
      <rect class="st1" x="88.75" y="158.15" width="110.51" height="1.57"/>
      <rect class="st19" x="88.75" y="156.59" width="110.51" height="1.57"/>
      <rect class="st18" x="88.75" y="155.02" width="110.51" height="1.57"/>
      <rect class="st14" x="88.75" y="153.46" width="110.51" height="1.57"/>
      <rect class="st10" x="88.75" y="151.89" width="110.51" height="1.57"/>
      <rect class="st7" x="88.75" y="150.32" width="110.51" height="1.57"/>
      <rect class="st22" x="88.75" y="148.76" width="110.51" height="1.57"/>
      <rect class="st25" x="88.75" y="147.19" width="110.51" height="1.57"/>
      <rect class="st5" x="88.75" y="145.63" width="110.51" height="1.57"/>
      <rect class="st6" x="88.75" y="144.06" width="110.51" height="1.57"/>
      <rect class="st6" x="88.75" y="142.5" width="110.51" height="1.57"/>
      <rect class="st26" x="88.75" y="140.93" width="110.51" height="1.57"/>
      <rect class="st4" x="88.75" y="139.36" width="110.51" height="1.57"/>
      <rect class="st4" x="88.75" y="137.8" width="110.51" height="1.57"/>
      <rect class="st4" x="88.75" y="136.23" width="110.51" height="1.57"/>
      <rect class="st20" x="88.75" y="134.67" width="110.51" height="1.57"/>
      <rect class="st20" x="88.75" y="133.1" width="110.51" height="1.57"/>
      <rect class="st20" x="88.75" y="123.95" width="110.51" height="9.15"/>
    </g>
    <path class="st23" d="M188.52,203.79c-27.09.18-53.13-12.37-80.37-12.62-14.87-.35-29.86,1.77-45.89,5.82-1.25.27-2.35-.07-2.61-1.2-.47-1.7,1.04-2.82,2.6-3.11,5.95-1.54,11.91-2.78,17.75-3.71,16.48-2.67,33.4-2.96,49.75.21,19.31,3.78,39.38,10.49,59,10.29,12.34.09,24.38-1.59,36.47-4.5,1.37-.35,2.67-.12,2.96,1.15.42,1.67-.9,2.74-2.42,3.04-12.85,3.15-25.04,4.7-37.05,4.64h-.18Z"/>
    <path class="st12" d="M188.68,186.3c-27.09.17-52.81-12.25-79.96-12.61-14.71-.34-29.15,1.52-45.08,5.53-1.25.36-3.18.76-3.72-.61-.09-.27-.19-.55-.19-.84-.09-1.52,1.33-2.3,2.67-2.59,5.95-1.54,11.9-2.77,17.75-3.71,16.49-2.67,33.38-2.96,49.75.21,19.3,3.78,39.39,10.49,58.99,10.29,12.34.09,24.38-1.59,36.47-4.5,1.37-.35,2.67-.12,2.96,1.15.42,1.67-.9,2.74-2.42,3.04-12.86,3.15-25.04,4.7-37.05,4.64h-.18Z"/>
  </g>
</svg>